<svg xmlns="http://www.w3.org/2000/svg" fill="none" viewBox="0 0 22 22"><path fill="#fff" d="M11 16.497a5.5 5.5 0 1 0 0-11 5.5 5.5 0 0 0 0 11"/><path fill="url(#chrome_svg__a)" d="M11 5.5h9.525a10.996 10.996 0 0 0-19.05.001l4.763 8.249.004-.001A5.493 5.493 0 0 1 11 5.499"/><path fill="#1A73E8" d="M11 15.354a4.354 4.354 0 1 0 0-8.708 4.354 4.354 0 0 0 0 8.708"/><path fill="url(#chrome_svg__b)" d="M15.762 13.752 11 22a10.996 10.996 0 0 0 9.524-16.498h-9.525l-.001.004a5.493 5.493 0 0 1 4.764 8.246"/><path fill="url(#chrome_svg__c)" d="M6.236 13.751 1.474 5.503A10.997 10.997 0 0 0 11 22l4.762-8.248-.003-.004a5.493 5.493 0 0 1-9.523.003"/><defs><linearGradient id="chrome_svg__a" x1="0" x2="22" y1="11" y2="11" gradientUnits="userSpaceOnUse"><stop stop-color="#D93025"/><stop offset="1" stop-color="#EA4335"/></linearGradient><linearGradient id="chrome_svg__b" x1="-3.001" x2="6.833" y1="21.804" y2="-3.742" gradientUnits="userSpaceOnUse"><stop stop-color="#FCD254"/><stop offset="1" stop-color="#FCC72C"/></linearGradient><linearGradient id="chrome_svg__c" x1="12.19" x2="2.665" y1="21.312" y2="4.815" gradientUnits="userSpaceOnUse"><stop stop-color="#1E8E3E"/><stop offset="1" stop-color="#34A853"/></linearGradient></defs></svg>